<svg aria-roledescription="class" role="graphics-document document" viewBox="0 0 431.5 682" height="682" class="classDiagram" xmlns="http://www.w3.org/2000/svg" width="431.5" id="mermaid-graph-242"><style>#mermaid-graph-242{font-family:"trebuchet ms",verdana,arial,sans-serif;font-size:16px;fill:#333;}@keyframes edge-animation-frame{from{stroke-dashoffset:0;}}@keyframes dash{to{stroke-dashoffset:0;}}#mermaid-graph-242 .edge-animation-slow{stroke-dasharray:9,5!important;stroke-dashoffset:900;animation:dash 50s linear infinite;stroke-linecap:round;}#mermaid-graph-242 .edge-animation-fast{stroke-dasharray:9,5!important;stroke-dashoffset:900;animation:dash 20s linear infinite;stroke-linecap:round;}#mermaid-graph-242 .error-icon{fill:#552222;}#mermaid-graph-242 .error-text{fill:#552222;stroke:#552222;}#mermaid-graph-242 .edge-thickness-normal{stroke-width:1px;}#mermaid-graph-242 .edge-thickness-thick{stroke-width:3.5px;}#mermaid-graph-242 .edge-pattern-solid{stroke-dasharray:0;}#mermaid-graph-242 .edge-thickness-invisible{stroke-width:0;fill:none;}#mermaid-graph-242 .edge-pattern-dashed{stroke-dasharray:3;}#mermaid-graph-242 .edge-pattern-dotted{stroke-dasharray:2;}#mermaid-graph-242 .marker{fill:#333333;stroke:#333333;}#mermaid-graph-242 .marker.cross{stroke:#333333;}#mermaid-graph-242 svg{font-family:"trebuchet ms",verdana,arial,sans-serif;font-size:16px;}#mermaid-graph-242 p{margin:0;}#mermaid-graph-242 g.classGroup text{fill:#9370DB;stroke:none;font-family:"trebuchet ms",verdana,arial,sans-serif;font-size:10px;}#mermaid-graph-242 g.classGroup text .title{font-weight:bolder;}#mermaid-graph-242 .nodeLabel,#mermaid-graph-242 .edgeLabel{color:#131300;}#mermaid-graph-242 .edgeLabel .label rect{fill:#ECECFF;}#mermaid-graph-242 .label text{fill:#131300;}#mermaid-graph-242 .labelBkg{background:#ECECFF;}#mermaid-graph-242 .edgeLabel .label span{background:#ECECFF;}#mermaid-graph-242 .classTitle{font-weight:bolder;}#mermaid-graph-242 .node rect,#mermaid-graph-242 .node circle,#mermaid-graph-242 .node ellipse,#mermaid-graph-242 .node polygon,#mermaid-graph-242 .node path{fill:#ECECFF;stroke:#9370DB;stroke-width:1px;}#mermaid-graph-242 .divider{stroke:#9370DB;stroke-width:1;}#mermaid-graph-242 g.clickable{cursor:pointer;}#mermaid-graph-242 g.classGroup rect{fill:#ECECFF;stroke:#9370DB;}#mermaid-graph-242 g.classGroup line{stroke:#9370DB;stroke-width:1;}#mermaid-graph-242 .classLabel .box{stroke:none;stroke-width:0;fill:#ECECFF;opacity:0.5;}#mermaid-graph-242 .classLabel .label{fill:#9370DB;font-size:10px;}#mermaid-graph-242 .relation{stroke:#333333;stroke-width:1;fill:none;}#mermaid-graph-242 .dashed-line{stroke-dasharray:3;}#mermaid-graph-242 .dotted-line{stroke-dasharray:1 2;}#mermaid-graph-242 #compositionStart,#mermaid-graph-242 .composition{fill:#333333!important;stroke:#333333!important;stroke-width:1;}#mermaid-graph-242 #compositionEnd,#mermaid-graph-242 .composition{fill:#333333!important;stroke:#333333!important;stroke-width:1;}#mermaid-graph-242 #dependencyStart,#mermaid-graph-242 .dependency{fill:#333333!important;stroke:#333333!important;stroke-width:1;}#mermaid-graph-242 #dependencyStart,#mermaid-graph-242 .dependency{fill:#333333!important;stroke:#333333!important;stroke-width:1;}#mermaid-graph-242 #extensionStart,#mermaid-graph-242 .extension{fill:transparent!important;stroke:#333333!important;stroke-width:1;}#mermaid-graph-242 #extensionEnd,#mermaid-graph-242 .extension{fill:transparent!important;stroke:#333333!important;stroke-width:1;}#mermaid-graph-242 #aggregationStart,#mermaid-graph-242 .aggregation{fill:transparent!important;stroke:#333333!important;stroke-width:1;}#mermaid-graph-242 #aggregationEnd,#mermaid-graph-242 .aggregation{fill:transparent!important;stroke:#333333!important;stroke-width:1;}#mermaid-graph-242 #lollipopStart,#mermaid-graph-242 .lollipop{fill:#ECECFF!important;stroke:#333333!important;stroke-width:1;}#mermaid-graph-242 #lollipopEnd,#mermaid-graph-242 .lollipop{fill:#ECECFF!important;stroke:#333333!important;stroke-width:1;}#mermaid-graph-242 .edgeTerminals{font-size:11px;line-height:initial;}#mermaid-graph-242 .classTitleText{text-anchor:middle;font-size:18px;fill:#333;}#mermaid-graph-242 :root{--mermaid-font-family:"trebuchet ms",verdana,arial,sans-serif;}</style><g><defs><marker orient="auto" markerHeight="240" markerWidth="190" refY="7" refX="18" class="marker aggregation class" id="mermaid-graph-242_class-aggregationStart"><path d="M 18,7 L9,13 L1,7 L9,1 Z"></path></marker></defs><defs><marker orient="auto" markerHeight="28" markerWidth="20" refY="7" refX="1" class="marker aggregation class" id="mermaid-graph-242_class-aggregationEnd"><path d="M 18,7 L9,13 L1,7 L9,1 Z"></path></marker></defs><defs><marker orient="auto" markerHeight="240" markerWidth="190" refY="7" refX="18" class="marker extension class" id="mermaid-graph-242_class-extensionStart"><path d="M 1,7 L18,13 V 1 Z"></path></marker></defs><defs><marker orient="auto" markerHeight="28" markerWidth="20" refY="7" refX="1" class="marker extension class" id="mermaid-graph-242_class-extensionEnd"><path d="M 1,1 V 13 L18,7 Z"></path></marker></defs><defs><marker orient="auto" markerHeight="240" markerWidth="190" refY="7" refX="18" class="marker composition class" id="mermaid-graph-242_class-compositionStart"><path d="M 18,7 L9,13 L1,7 L9,1 Z"></path></marker></defs><defs><marker orient="auto" markerHeight="28" markerWidth="20" refY="7" refX="1" class="marker composition class" id="mermaid-graph-242_class-compositionEnd"><path d="M 18,7 L9,13 L1,7 L9,1 Z"></path></marker></defs><defs><marker orient="auto" markerHeight="240" markerWidth="190" refY="7" refX="6" class="marker dependency class" id="mermaid-graph-242_class-dependencyStart"><path d="M 5,7 L9,13 L1,7 L9,1 Z"></path></marker></defs><defs><marker orient="auto" markerHeight="28" markerWidth="20" refY="7" refX="13" class="marker dependency class" id="mermaid-graph-242_class-dependencyEnd"><path d="M 18,7 L9,13 L14,7 L9,1 Z"></path></marker></defs><defs><marker orient="auto" markerHeight="240" markerWidth="190" refY="7" refX="13" class="marker lollipop class" id="mermaid-graph-242_class-lollipopStart"><circle r="6" cy="7" cx="7" fill="transparent" stroke="black"></circle></marker></defs><defs><marker orient="auto" markerHeight="240" markerWidth="190" refY="7" refX="1" class="marker lollipop class" id="mermaid-graph-242_class-lollipopEnd"><circle r="6" cy="7" cx="7" fill="transparent" stroke="black"></circle></marker></defs><g class="root"><g class="clusters"></g><g class="edgePaths"><path style="fill: none;" class="edge-thickness-normal edge-pattern-dotted relation" id="edgeNote1" d="M111.602,44L111.602,48.167C111.602,52.333,111.602,60.667,111.602,69C111.602,77.333,111.602,85.667,111.602,89.833L111.602,94"></path><path marker-end="url(#mermaid-graph-242_class-dependencyEnd)" style=";" class="edge-thickness-normal edge-pattern-dashed relation" id="id_Objective_Event_1" d="M111.602,480L111.602,484.167C111.602,488.333,111.602,496.667,119.784,507.759C127.967,518.852,144.332,532.705,152.515,539.631L160.698,546.557"></path><path marker-end="url(#mermaid-graph-242_class-compositionEnd)" style=";" class="edge-thickness-normal edge-pattern-solid relation" id="id_Quest_Objective_2" d="M111.602,262L111.602,266.167C111.602,270.333,111.602,278.667,111.602,284C111.602,289.333,111.602,291.667,111.602,292.833L111.602,294"></path><path marker-end="url(#mermaid-graph-242_class-dependencyEnd)" style=";" class="edge-thickness-normal edge-pattern-dashed relation" id="id_Dialogue_Event_3" d="M340.797,480L340.797,484.167C340.797,488.333,340.797,496.667,332.614,507.759C324.432,518.852,308.066,532.705,299.883,539.631L291.701,546.557"></path></g><g class="edgeLabels"><g class="edgeLabel"><g transform="translate(0, 0)" class="label"><foreignObject height="0" width="0"><div class="labelBkg" xmlns="http://www.w3.org/1999/xhtml" style="display: table-cell; white-space: nowrap; line-height: 1.5; max-width: 200px; text-align: center;"><span class="edgeLabel" style=";"></span></div></foreignObject></g></g><g class="edgeLabel"><g transform="translate(0, -12)" class="label"><foreignObject height="24" width="0"><div class="labelBkg" xmlns="http://www.w3.org/1999/xhtml" style="display: table-cell; white-space: nowrap; line-height: 1.5; max-width: 200px; text-align: center;"><span class="edgeLabel" style=";display: inline-block"></span></div></foreignObject></g></g><g class="edgeLabel"><g transform="translate(0, -12)" class="label"><foreignObject height="24" width="0"><div class="labelBkg" xmlns="http://www.w3.org/1999/xhtml" style="display: table-cell; white-space: nowrap; line-height: 1.5; max-width: 200px; text-align: center;"><span class="edgeLabel" style=";display: inline-block"></span></div></foreignObject></g></g><g class="edgeLabel"><g transform="translate(0, -12)" class="label"><foreignObject height="24" width="0"><div class="labelBkg" xmlns="http://www.w3.org/1999/xhtml" style="display: table-cell; white-space: nowrap; line-height: 1.5; max-width: 200px; text-align: center;"><span class="edgeLabel" style=";display: inline-block"></span></div></foreignObject></g></g></g><g class="nodes"><g transform="translate(111.6015625, 178)" id="classId-Quest-1186" class="node default"><g class="basic label-container"><path style="" fill="#ECECFF" stroke-width="0" stroke="none" d="M-103.6015625 -84 L103.6015625 -84 L103.6015625 84 L-103.6015625 84"></path><path style="" fill="none" stroke-width="1.3" stroke="#9370DB" d="M-103.6015625 -84 C-27.719247417671397 -84, 48.163067664657206 -84, 103.6015625 -84 M-103.6015625 -84 C-38.55319901474 -84, 26.495164470519995 -84, 103.6015625 -84 M103.6015625 -84 C103.6015625 -48.62550864095546, 103.6015625 -13.251017281910919, 103.6015625 84 M103.6015625 -84 C103.6015625 -23.247682908699588, 103.6015625 37.504634182600824, 103.6015625 84 M103.6015625 84 C53.77535260222577 84, 3.949142704451546 84, -103.6015625 84 M103.6015625 84 C26.360563983854362 84, -50.880434532291275 84, -103.6015625 84 M-103.6015625 84 C-103.6015625 17.972029729695137, -103.6015625 -48.055940540609726, -103.6015625 -84 M-103.6015625 84 C-103.6015625 35.92197769650423, -103.6015625 -12.156044606991543, -103.6015625 -84"></path></g><g transform="translate(0, -60)" class="annotation-group text"></g><g transform="translate(-22.671875, -60)" class="label-group text"><g transform="translate(0,-12)" style="font-weight: bolder" class="label"><foreignObject height="24" width="45.34375"><div style="display: table-cell; white-space: nowrap; line-height: 1.5; max-width: 94px; text-align: center;" xmlns="http://www.w3.org/1999/xhtml"><span style="" class="nodeLabel markdown-node-label"><p>Quest</p></span></div></foreignObject></g></g><g transform="translate(-91.6015625, -12)" class="members-group text"><g transform="translate(0,-12)" style="" class="label"><foreignObject height="24" width="95.609375"><div style="display: table-cell; white-space: nowrap; line-height: 1.5; max-width: 156px; text-align: center;" xmlns="http://www.w3.org/1999/xhtml"><span style="" class="nodeLabel markdown-node-label"><p>+String name</p></span></div></foreignObject></g><g transform="translate(0,12)" style="" class="label"><foreignObject height="24" width="160.53125"><div style="display: table-cell; white-space: nowrap; line-height: 1.5; max-width: 229px; text-align: center;" xmlns="http://www.w3.org/1999/xhtml"><span style="" class="nodeLabel markdown-node-label"><p>+Objective[] objectives</p></span></div></foreignObject></g><g transform="translate(0,36)" style="" class="label"><foreignObject height="24" width="125.84375"><div style="display: table-cell; white-space: nowrap; line-height: 1.5; max-width: 191px; text-align: center;" xmlns="http://www.w3.org/1999/xhtml"><span style="" class="nodeLabel markdown-node-label"><p>+currentObjective</p></span></div></foreignObject></g></g><g transform="translate(-91.6015625, 84)" class="methods-group text"></g><g style="" class="divider"><path style="" fill="none" stroke-width="1.3" stroke="#9370DB" d="M-103.6015625 -36 C-30.350096999382203 -36, 42.901368501235595 -36, 103.6015625 -36 M-103.6015625 -36 C-48.019156718756065 -36, 7.56324906248787 -36, 103.6015625 -36"></path></g><g style="" class="divider"><path style="" fill="none" stroke-width="1.3" stroke="#9370DB" d="M-103.6015625 60 C-38.11748736864544 60, 27.366587762709116 60, 103.6015625 60 M-103.6015625 60 C-54.59678722988914 60, -5.592011959778276 60, 103.6015625 60"></path></g></g><g transform="translate(111.6015625, 396)" id="classId-Objective-1187" class="node default"><g class="basic label-container"><path style="" fill="#ECECFF" stroke-width="0" stroke="none" d="M-96.4921875 -84 L96.4921875 -84 L96.4921875 84 L-96.4921875 84"></path><path style="" fill="none" stroke-width="1.3" stroke="#9370DB" d="M-96.4921875 -84 C-54.30805189074827 -84, -12.123916281496534 -84, 96.4921875 -84 M-96.4921875 -84 C-46.12282857192244 -84, 4.2465303561551195 -84, 96.4921875 -84 M96.4921875 -84 C96.4921875 -43.86854589613617, 96.4921875 -3.737091792272338, 96.4921875 84 M96.4921875 -84 C96.4921875 -23.03131860275475, 96.4921875 37.9373627944905, 96.4921875 84 M96.4921875 84 C51.08155396651076 84, 5.6709204330215215 84, -96.4921875 84 M96.4921875 84 C49.86694105364386 84, 3.2416946072877266 84, -96.4921875 84 M-96.4921875 84 C-96.4921875 45.34725017969023, -96.4921875 6.694500359380456, -96.4921875 -84 M-96.4921875 84 C-96.4921875 26.14729223016853, -96.4921875 -31.705415539662937, -96.4921875 -84"></path></g><g transform="translate(0, -60)" class="annotation-group text"></g><g transform="translate(-36.015625, -60)" class="label-group text"><g transform="translate(0,-12)" style="font-weight: bolder" class="label"><foreignObject height="24" width="72.03125"><div style="display: table-cell; white-space: nowrap; line-height: 1.5; max-width: 121px; text-align: center;" xmlns="http://www.w3.org/1999/xhtml"><span style="" class="nodeLabel markdown-node-label"><p>Objective</p></span></div></foreignObject></g></g><g transform="translate(-84.4921875, -12)" class="members-group text"><g transform="translate(0,-12)" style="" class="label"><foreignObject height="24" width="132.96875"><div style="display: table-cell; white-space: nowrap; line-height: 1.5; max-width: 198px; text-align: center;" xmlns="http://www.w3.org/1999/xhtml"><span style="" class="nodeLabel markdown-node-label"><p>+String description</p></span></div></foreignObject></g><g transform="translate(0,12)" style="" class="label"><foreignObject height="24" width="107.625"><div style="display: table-cell; white-space: nowrap; line-height: 1.5; max-width: 161px; text-align: center;" xmlns="http://www.w3.org/1999/xhtml"><span style="" class="nodeLabel markdown-node-label"><p>Event OnBegin</p></span></div></foreignObject></g><g transform="translate(0,36)" style="" class="label"><foreignObject height="24" width="95.171875"><div style="display: table-cell; white-space: nowrap; line-height: 1.5; max-width: 147px; text-align: center;" xmlns="http://www.w3.org/1999/xhtml"><span style="" class="nodeLabel markdown-node-label"><p>Event OnEnd</p></span></div></foreignObject></g></g><g transform="translate(-84.4921875, 84)" class="methods-group text"></g><g style="" class="divider"><path style="" fill="none" stroke-width="1.3" stroke="#9370DB" d="M-96.4921875 -36 C-42.21780138903197 -36, 12.056584721936062 -36, 96.4921875 -36 M-96.4921875 -36 C-57.17541069140339 -36, -17.858633882806785 -36, 96.4921875 -36"></path></g><g style="" class="divider"><path style="" fill="none" stroke-width="1.3" stroke="#9370DB" d="M-96.4921875 60 C-43.41867649374652 60, 9.654834512506966 60, 96.4921875 60 M-96.4921875 60 C-24.723648317668733 60, 47.044890864662534 60, 96.4921875 60"></path></g></g><g transform="translate(226.19921875, 602)" id="classId-Event-1188" class="node default"><g class="basic label-container"><path style="" fill="#ECECFF" stroke-width="0" stroke="none" d="M-60.921875 -72 L60.921875 -72 L60.921875 72 L-60.921875 72"></path><path style="" fill="none" stroke-width="1.3" stroke="#9370DB" d="M-60.921875 -72 C-21.20631589801536 -72, 18.509243203969277 -72, 60.921875 -72 M-60.921875 -72 C-23.29987001800263 -72, 14.322134963994742 -72, 60.921875 -72 M60.921875 -72 C60.921875 -15.427197237043252, 60.921875 41.145605525913496, 60.921875 72 M60.921875 -72 C60.921875 -17.80600566340521, 60.921875 36.38798867318958, 60.921875 72 M60.921875 72 C32.416378029782706 72, 3.910881059565412 72, -60.921875 72 M60.921875 72 C26.859133489776738 72, -7.203608020446524 72, -60.921875 72 M-60.921875 72 C-60.921875 41.46478037361699, -60.921875 10.929560747233978, -60.921875 -72 M-60.921875 72 C-60.921875 15.12168776614962, -60.921875 -41.75662446770076, -60.921875 -72"></path></g><g transform="translate(-40.03125, -48)" class="annotation-group text"><g transform="translate(0,-12)" style="" class="label"><foreignObject height="24" width="80.0625"><div style="display: table-cell; white-space: nowrap; line-height: 1.5; max-width: 135px; text-align: center;" xmlns="http://www.w3.org/1999/xhtml"><span style="" class="nodeLabel markdown-node-label"><p>«Interface»</p></span></div></foreignObject></g></g><g transform="translate(-21.7890625, -24)" class="label-group text"><g transform="translate(0,-12)" style="font-weight: bolder" class="label"><foreignObject height="24" width="43.578125"><div style="display: table-cell; white-space: nowrap; line-height: 1.5; max-width: 92px; text-align: center;" xmlns="http://www.w3.org/1999/xhtml"><span style="" class="nodeLabel markdown-node-label"><p>Event</p></span></div></foreignObject></g></g><g transform="translate(-48.921875, 24)" class="members-group text"><g transform="translate(0,-12)" style="" class="label"><foreignObject height="24" width="57.8125"><div style="display: table-cell; white-space: nowrap; line-height: 1.5; max-width: 110px; text-align: center;" xmlns="http://www.w3.org/1999/xhtml"><span style="" class="nodeLabel markdown-node-label"><p>Execute</p></span></div></foreignObject></g></g><g transform="translate(-48.921875, 72)" class="methods-group text"></g><g style="" class="divider"><path style="" fill="none" stroke-width="1.3" stroke="#9370DB" d="M-60.921875 0 C-15.092942415218232 0, 30.735990169563536 0, 60.921875 0 M-60.921875 0 C-14.48123620700072 0, 31.95940258599856 0, 60.921875 0"></path></g><g style="" class="divider"><path style="" fill="none" stroke-width="1.3" stroke="#9370DB" d="M-60.921875 48 C-25.070752728362983 48, 10.780369543274034 48, 60.921875 48 M-60.921875 48 C-22.058704662587004 48, 16.80446567482599 48, 60.921875 48"></path></g></g><g transform="translate(340.796875, 396)" id="classId-Dialogue-1189" class="node default"><g class="basic label-container"><path style="" fill="#ECECFF" stroke-width="0" stroke="none" d="M-82.703125 -84 L82.703125 -84 L82.703125 84 L-82.703125 84"></path><path style="" fill="none" stroke-width="1.3" stroke="#9370DB" d="M-82.703125 -84 C-32.466707944036884 -84, 17.769709111926232 -84, 82.703125 -84 M-82.703125 -84 C-49.05318722845568 -84, -15.403249456911354 -84, 82.703125 -84 M82.703125 -84 C82.703125 -23.960311579228147, 82.703125 36.079376841543706, 82.703125 84 M82.703125 -84 C82.703125 -33.163791782169184, 82.703125 17.67241643566163, 82.703125 84 M82.703125 84 C39.248045747628275 84, -4.20703350474345 84, -82.703125 84 M82.703125 84 C45.317035357482546 84, 7.930945714965091 84, -82.703125 84 M-82.703125 84 C-82.703125 30.78991422811511, -82.703125 -22.420171543769783, -82.703125 -84 M-82.703125 84 C-82.703125 49.5418903613245, -82.703125 15.083780722648996, -82.703125 -84"></path></g><g transform="translate(0, -60)" class="annotation-group text"></g><g transform="translate(-33.78125, -60)" class="label-group text"><g transform="translate(0,-12)" style="font-weight: bolder" class="label"><foreignObject height="24" width="67.5625"><div style="display: table-cell; white-space: nowrap; line-height: 1.5; max-width: 116px; text-align: center;" xmlns="http://www.w3.org/1999/xhtml"><span style="" class="nodeLabel markdown-node-label"><p>Dialogue</p></span></div></foreignObject></g></g><g transform="translate(-70.703125, -12)" class="members-group text"><g transform="translate(0,-12)" style="" class="label"><foreignObject height="24" width="85.84375"><div style="display: table-cell; white-space: nowrap; line-height: 1.5; max-width: 148px; text-align: center;" xmlns="http://www.w3.org/1999/xhtml"><span style="" class="nodeLabel markdown-node-label"><p>+Line[] lines</p></span></div></foreignObject></g><g transform="translate(0,12)" style="" class="label"><foreignObject height="24" width="107.625"><div style="display: table-cell; white-space: nowrap; line-height: 1.5; max-width: 161px; text-align: center;" xmlns="http://www.w3.org/1999/xhtml"><span style="" class="nodeLabel markdown-node-label"><p>Event OnBegin</p></span></div></foreignObject></g><g transform="translate(0,36)" style="" class="label"><foreignObject height="24" width="95.171875"><div style="display: table-cell; white-space: nowrap; line-height: 1.5; max-width: 147px; text-align: center;" xmlns="http://www.w3.org/1999/xhtml"><span style="" class="nodeLabel markdown-node-label"><p>Event OnEnd</p></span></div></foreignObject></g></g><g transform="translate(-70.703125, 84)" class="methods-group text"></g><g style="" class="divider"><path style="" fill="none" stroke-width="1.3" stroke="#9370DB" d="M-82.703125 -36 C-23.483232008819222 -36, 35.736660982361556 -36, 82.703125 -36 M-82.703125 -36 C-39.156969602606694 -36, 4.389185794786613 -36, 82.703125 -36"></path></g><g style="" class="divider"><path style="" fill="none" stroke-width="1.3" stroke="#9370DB" d="M-82.703125 60 C-30.517523405866143 60, 21.668078188267714 60, 82.703125 60 M-82.703125 60 C-26.36949231113841 60, 29.964140377723183 60, 82.703125 60"></path></g></g><g transform="translate(111.6015625, 26)" id="note0" class="node undefined"><g class="basic label-container"><path style="fill:#fff5ad !important;stroke:#aaaa33 !important" fill="#fff5ad" stroke-width="0" stroke="none" d="M-75.3671875 -18 L75.3671875 -18 L75.3671875 18 L-75.3671875 18"></path><path style="fill:#fff5ad !important;stroke:#aaaa33 !important" fill="none" stroke-width="1.3" stroke="#aaaa33" d="M-75.3671875 -18 C-15.766939414538903 -18, 43.83330867092219 -18, 75.3671875 -18 M-75.3671875 -18 C-27.728700351950856 -18, 19.909786796098288 -18, 75.3671875 -18 M75.3671875 -18 C75.3671875 -5.71495641255404, 75.3671875 6.5700871748919205, 75.3671875 18 M75.3671875 -18 C75.3671875 -10.510028295814529, 75.3671875 -3.0200565916290554, 75.3671875 18 M75.3671875 18 C32.00861093209287 18, -11.349965635814257 18, -75.3671875 18 M75.3671875 18 C26.680392866083338 18, -22.006401767833324 18, -75.3671875 18 M-75.3671875 18 C-75.3671875 5.917571627895452, -75.3671875 -6.1648567442090965, -75.3671875 -18 M-75.3671875 18 C-75.3671875 7.214118138587507, -75.3671875 -3.5717637228249863, -75.3671875 -18"></path></g><g transform="translate(-69.3671875, -12)" style="text-align:left !important;white-space:nowrap !important" class="label"><rect></rect><foreignObject height="24" width="138.734375"><div xmlns="http://www.w3.org/1999/xhtml" style="text-align: center; white-space: nowrap; display: table-cell; line-height: 1.5; max-width: 200px;"><span class="nodeLabel" style="text-align:left !important;white-space:nowrap !important"><p>Series of objectives</p></span></div></foreignObject></g></g></g></g></g></svg>